<?xml version="1.0" encoding="UTF-8"?>
<svg id="Layer_1" xmlns="http://www.w3.org/2000/svg" version="1.1" viewBox="0 0 140.7 128.21">
  <!-- Generator: Adobe Illustrator 29.8.2, SVG Export Plug-In . SVG Version: 2.1.1 Build 3)  -->
  <defs>
    <style>
      .st0 {
        fill: none;
        stroke-width: 5px;
      }

      .st0, .st1 {
        stroke: #000;
        stroke-miterlimit: 10;
      }
    </style>
  </defs>
  <g id="Border-IN">
    <g id="Camera-Body">
      <rect class="st0" x="30.3" y="23.99" width="80.15" height="80.28"/>
    </g>
  </g>
  <g>
    <path class="st1" d="M50.39,46.16c0-2.03,1.56-3.35,3.58-3.35s3.58,1.31,3.58,3.35-1.56,3.35-3.58,3.35-3.58-1.39-3.58-3.35ZM51.34,55.8h5.18v30.62h-5.18v-30.62Z"/>
    <path class="st1" d="M66.83,55.8h4.28l.44,4.42h.17c2.92-2.87,6.07-5.17,10.27-5.17,6.45,0,9.35,4.16,9.35,11.97v19.4h-5.18v-18.73c0-5.7-1.72-8.14-5.78-8.14-3.13,0-5.3,1.6-8.37,4.7v22.17h-5.18v-30.62Z"/>
  </g>
</svg>